# Blender v2.78 (sub 0) OBJ File: ''
# www.blender.org
mtllib textures.mtl
o Cube
v 0.000000 -1.000000 0.000000
v 0.000000 2.000000 0.000000
v 0.000000 -1.000000 -2.000000
v 1.000000 -1.000000 0.000000
v 1.000000 2.000000 0.000000
v 1.000000 -1.000000 -2.000000
v 0.000000 -1.000000 -1.000000
v 0.000000 2.000000 -1.000000
v 1.000000 -1.000000 -1.000000
v 1.000000 2.000000 -1.000000
v 0.000000 0.000000 0.000000
v 0.000000 1.000000 0.000000
v 0.000000 1.000000 -2.000000
v 0.000000 0.000000 -2.000000
v 1.000000 1.000000 -2.000000
v 1.000000 0.000000 -2.000000
v 1.000000 1.000000 0.000000
v 1.000000 0.000000 0.000000
v 1.000000 1.000000 -1.000000
v 1.000000 0.000000 -1.000000
v 0.000000 1.000000 -1.000000
v 0.000000 0.000000 -1.000000
vn 0.0000 0.7071 -0.7071
vn 1.0000 0.0000 0.0000
vn 0.0000 0.0000 1.0000
vn 0.0000 -1.0000 0.0000
vn 0.0000 1.0000 0.0000
vn -1.0000 0.0000 0.0000
vn 0.0000 0.0000 -1.0000
usemtl None
s off
f 15//1 13//1 8//1 10//1
f 15//2 10//2 19//2
f 19//2 10//2 5//2 17//2
f 17//3 5//3 2//3 12//3
f 7//4 9//4 4//4 1//4
f 10//5 8//5 2//5 5//5
f 3//4 6//4 9//4 7//4
f 13//6 21//6 8//6
f 12//6 2//6 8//6 21//6
f 1//6 11//6 22//6 7//6
f 11//6 12//6 21//6 22//6
f 6//2 16//2 20//2 9//2
f 16//2 15//2 19//2 20//2
f 4//3 18//3 11//3 1//3
f 18//3 17//3 12//3 11//3
f 9//2 20//2 18//2 4//2
f 20//2 19//2 17//2 18//2
f 3//7 14//7 16//7 6//7
f 14//7 13//7 15//7 16//7
f 7//6 22//6 14//6 3//6
f 22//6 21//6 13//6 14//6
